<svg width="18" height="19" viewBox="0 0 18 19" fill="none" xmlns="http://www.w3.org/2000/svg">
<g opacity="0.8">
<path d="M12.75 8.75V6.5C12.75 4.42893 11.0711 2.75 9 2.75C6.92893 2.75 5.25 4.42893 5.25 6.5V8.75M5.85 16.25H12.15C13.4101 16.25 14.0402 16.25 14.5215 16.0048C14.9448 15.789 15.289 15.4448 15.5048 15.0215C15.75 14.5402 15.75 13.9101 15.75 12.65V12.35C15.75 11.0899 15.75 10.4598 15.5048 9.97852C15.289 9.55516 14.9448 9.21095 14.5215 8.99524C14.0402 8.75 13.4101 8.75 12.15 8.75H5.85C4.58988 8.75 3.95982 8.75 3.47852 8.99524C3.05516 9.21095 2.71095 9.55516 2.49524 9.97852C2.25 10.4598 2.25 11.0899 2.25 12.35V12.65C2.25 13.9101 2.25 14.5402 2.49524 15.0215C2.71095 15.4448 3.05516 15.789 3.47852 16.0048C3.95982 16.25 4.58988 16.25 5.85 16.25Z" stroke="#FAFAFA" stroke-linecap="round" stroke-linejoin="round"/>
</g>
</svg>
