<svg width="18" height="19" viewBox="0 0 18 19" fill="none" xmlns="http://www.w3.org/2000/svg">
<g opacity="0.8">
<path d="M1.5 5.75L7.62369 10.0366C8.11957 10.3837 8.36751 10.5573 8.6372 10.6245C8.87542 10.6839 9.12458 10.6839 9.3628 10.6245C9.63249 10.5573 9.88043 10.3837 10.3763 10.0366L16.5 5.75M5.1 15.5H12.9C14.1601 15.5 14.7902 15.5 15.2715 15.2548C15.6948 15.039 16.039 14.6948 16.2548 14.2715C16.5 13.7902 16.5 13.1601 16.5 11.9V7.1C16.5 5.83988 16.5 5.20982 16.2548 4.72852C16.039 4.30516 15.6948 3.96095 15.2715 3.74524C14.7902 3.5 14.1601 3.5 12.9 3.5H5.1C3.83988 3.5 3.20982 3.5 2.72852 3.74524C2.30516 3.96095 1.96095 4.30516 1.74524 4.72852C1.5 5.20982 1.5 5.83988 1.5 7.1V11.9C1.5 13.1601 1.5 13.7902 1.74524 14.2715C1.96095 14.6948 2.30516 15.039 2.72852 15.2548C3.20982 15.5 3.83988 15.5 5.1 15.5Z" stroke="#FAFAFA" stroke-linecap="round" stroke-linejoin="round"/>
</g>
</svg>
